<svg xmlns="http://www.w3.org/2000/svg" data-name="Layer 1" viewBox="0 0 48 60" x="0px" y="0px"><title>elements solid icons</title><g data-name="Group"><path data-name="Path" d="M33.86,21.75,22.77,13.41a4.24,4.24,0,0,0-3.58-.72L9.46,15.12A11.45,11.45,0,0,0,.9,24.65L0,30.89A4.24,4.24,0,0,0,2.92,35.5l15.19,5a4.3,4.3,0,0,0,1.33.21H31.31a4.23,4.23,0,0,0,4.24-4.24V25.14A4.22,4.22,0,0,0,33.86,21.75Z"/><path data-name="Path" d="M36.61,8.85a1.53,1.53,0,0,0-1-.72L32.34,7.4a3.65,3.65,0,0,0-3.86,1.42L27.4,10.43a1.3,1.3,0,0,0,.26,1.7l4,3.57A1.34,1.34,0,0,0,32,16l3.61,1.71a1.37,1.37,0,0,0,1.85-.56L39,14a1.26,1.26,0,0,0-.07-1.19Z"/><path data-name="Path" d="M47.89,22.19l-1.22-2.08a.81.81,0,0,0-.71-.39l-3.14-.06A1.1,1.1,0,0,0,42,20l-1.71,1.73a2.73,2.73,0,0,0-.71,2.88l.49,1.26a.86.86,0,0,0,1.08.47l3.62-1.1a1.11,1.11,0,0,0,.29-.14l2.4-1.57A1,1,0,0,0,47.89,22.19Z"/></g></svg>