<svg xmlns="http://www.w3.org/2000/svg" data-name="Layer 3" viewBox="0 0 96 120" x="0px" y="0px" style="fill: #ffd900;"><title>Gold</title><path d="M5,85H62.11l.17,0,.17,0H91a2,2,0,0,0,1.94-2.5l-4.1-16A2,2,0,0,0,86.9,65H78.39L74.71,50.51A2,2,0,0,0,72.77,49H64.22L60.54,34.51A2,2,0,0,0,58.6,33H38.4a2,2,0,0,0-1.94,1.51L32.78,49H24.23a2,2,0,0,0-1.94,1.51L18.61,65H9.1a2,2,0,0,0-1.94,1.5l-4.1,16A2,2,0,0,0,5,85ZM33.55,74.94,32,69h3ZM36.13,81l3.07-12H56.46l3.07,12ZM47,53h3L48.5,58.88ZM62.28,75.59,60.59,69H64ZM76.83,69h8.52l3.07,12H65L68.1,69ZM62.67,53h8.54l3,12H51.07l3-12ZM40,37H57l3,12H36.91ZM25.79,53H42.88l3,12H22.74ZM10.65,69H27.9L31,81H7.58Z"/><path d="M5,53h9a2,2,0,0,0,0-4H5a2,2,0,0,0,0,4Z"/><path d="M91,49H82a2,2,0,0,0,0,4h9a2,2,0,0,0,0-4Z"/><path d="M74.91,21.29l-6.06,6.06a2,2,0,1,0,2.83,2.83l6.06-6.06a2,2,0,0,0-2.83-2.83Z"/><path d="M46,11v9a2,2,0,0,0,4,0V11a2,2,0,0,0-4,0Z"/><path d="M18.31,21.29a2,2,0,0,0,0,2.83l6.06,6.06a2,2,0,0,0,2.83-2.83l-6.06-6.06A2,2,0,0,0,18.31,21.29Z"/><path d="M92.85,32.42a2,2,0,0,0-2.61-1.08L81,35.16a2,2,0,1,0,1.53,3.7L91.77,35A2,2,0,0,0,92.85,32.42Z"/><path d="M64,7.23l-3.82,9.21A2,2,0,1,0,63.84,18l3.82-9.21A2,2,0,1,0,64,7.23Z"/><path d="M29.42,6.15a2,2,0,0,0-1.08,2.61L32.16,18a2,2,0,0,0,3.7-1.53L32,7.23A2,2,0,0,0,29.42,6.15Z"/><path d="M4.23,35l9.21,3.82A2,2,0,1,0,15,35.16L5.77,31.34A2,2,0,0,0,4.23,35Z"/></svg>