<svg xmlns="http://www.w3.org/2000/svg" viewBox="0 0 100 125" x="0px" y="0px" style="fill: #ffd900;"><g data-name="Layer 2"><path d="M50.82,28.09a.9.9,0,0,0,.9-.9V15a.9.9,0,1,0-1.8,0V27.19A.91.91,0,0,0,50.82,28.09Z"/><path d="M49.92,72.81V85a.9.9,0,0,0,1.8,0V72.81a.9.9,0,0,0-1.8,0Z"/><path d="M33.57,34.52a.85.85,0,0,0,.63.26.9.9,0,0,0,.64-1.53l-8.62-8.62A.9.9,0,0,0,25,25.9Z"/><path d="M65.83,65.51a.9.9,0,0,0,0,1.27l8.62,8.62a.85.85,0,0,0,.63.26.9.9,0,0,0,.64-1.53L67.1,65.51A.9.9,0,0,0,65.83,65.51Z"/><path d="M15,51.27H27.19a.9.9,0,0,0,0-1.8H15a.9.9,0,1,0,0,1.8Z"/><path d="M71.91,50.37a.9.9,0,0,0,.9.9H85a.9.9,0,1,0,0-1.8H72.81A.9.9,0,0,0,71.91,50.37Z"/><path d="M34.52,66.35a.9.9,0,0,0-1.27,0L24.63,75a.91.91,0,0,0,.64,1.54.86.86,0,0,0,.63-.27l8.62-8.61A.91.91,0,0,0,34.52,66.35Z"/><path d="M66.15,35.63a.86.86,0,0,0,.63-.27l8.62-8.61a.91.91,0,0,0,0-1.28.9.9,0,0,0-1.27,0l-8.62,8.62a.91.91,0,0,0,.64,1.54Z"/><path d="M37.24,57.87a6.36,6.36,0,0,0,4.74,3s.67,0,1.59,0c2.11,0,5.62-.26,5.87-2a.65.65,0,0,0,0-.14,35.48,35.48,0,0,0,6,.58,7.46,7.46,0,0,0,4-.76c1.63-1.22,3.76-5.35,3.92-8.43a4.19,4.19,0,0,0-1.13-3.49c-1.31-1.22-2.87-2.56-4.13-3.63-1.06-.9-2-1.68-2.39-2.1a7.43,7.43,0,0,0-8-1l-.9.44c-2.6,1.25-6.15,3-6.49,5.56l-.07.45A30.73,30.73,0,0,0,39.84,50a3.72,3.72,0,0,0-2.3,2.64l-.15.45c-.5,1.44-1.18,3.4-.25,4.61ZM42,46.58l.06-.46c.22-1.63,3.52-3.23,5.49-4.18l.93-.46a5.24,5.24,0,0,1,2.36-.55,5.62,5.62,0,0,1,3.58,1.24c.47.46,1.37,1.22,2.5,2.19s2.8,2.38,4.07,3.58A2.72,2.72,0,0,1,61.52,50c-.15,2.65-2.07,6.24-3.21,7.09-.87.65-5.21.45-9.15-.27a9.72,9.72,0,0,0-2.73-4.5,18.65,18.65,0,0,0-4.79-2.15A27.61,27.61,0,0,1,42,46.58Zm-2.87,7.14.16-.48c.37-1.09.93-1.5,1.18-1.5a16.88,16.88,0,0,1,4.91,2,8.35,8.35,0,0,1,2.33,4.72c-.63.42-3.48.72-5.55.55a4.64,4.64,0,0,1-3.45-2.25l-.1-.14C38.23,56.2,38.85,54.4,39.09,53.72Z"/></g></svg>