<svg xmlns="http://www.w3.org/2000/svg" xmlns:xlink="http://www.w3.org/1999/xlink" version="1.1" x="0px" y="0px" viewBox="0 0 69 86.25" style="enable-background:new 0 0 69 69; fill: #fff;" xml:space="preserve"><g><path d="M53.31487,59.64214H15.68899c-0.57012,0-1.03226,0.46214-1.03226,1.03226v4.79335   c0,0.57012,0.46213,1.03226,1.03226,1.03226h37.62588c0.57013,0,1.03226-0.46214,1.03226-1.03226V60.6744   C54.34713,60.10427,53.88499,59.64214,53.31487,59.64214z"/><path d="M18.08081,55.19695v2.38451h32.83613v-2.38451c0-0.56773-0.46453-1.03226-1.03226-1.03226H19.11307   C18.54534,54.16469,18.08081,54.62922,18.08081,55.19695z"/><path d="M20.96079,50.95438v1.14579h27.07617v-1.14579c0-0.56779-0.4542-1.03226-1.03226-1.03226H21.99305   C21.42532,49.92213,20.96079,50.38659,20.96079,50.95438z"/><rect x="33.20341" y="45.59696" width="2.60125" height="2.26065"/><path d="M34.50401,37.34917c1.62065,0,2.93164-1.32125,2.93164-2.94191c0-1.06319-1.51745-3.76777-2.93164-5.91482   c-1.41419,2.14705-2.94191,4.85163-2.94191,5.91482C31.5621,36.02791,32.88335,37.34917,34.50401,37.34917z"/><path d="M31.1389,47.85761v-2.26065c0-1.13552,0.91866-2.06451,2.06451-2.06451h2.60125c1.13552,0,2.06451,0.92899,2.06451,2.06451   v2.26065h6.02842c3.22064-3.80904,5.17162-9.50712,5.17162-15.60774c0-6.62714-2.27098-13.12002-5.99742-17.22839h0.13414   c1.16646,0,2.11618-0.94972,2.11618-2.11618v-0.06193H23.67563v0.06193c0,1.16646,0.94966,2.11618,2.12645,2.11618h0.11353   c-3.7161,4.10837-5.98708,10.59092-5.98708,17.22839c0,6.10062,1.96132,11.7987,5.18196,15.60774H31.1389z M33.65755,26.07693   c0.39226-0.54706,1.29032-0.54706,1.68258,0c0.69166,0.97033,4.16003,5.92515,4.16003,8.33033   c0,2.75611-2.23998,5.00643-4.99615,5.00643c-2.75611,0-5.00643-2.25032-5.00643-5.00643   C29.49758,32.00208,32.96595,27.04725,33.65755,26.07693z"/><path d="M22.59599,10.77829h23.81187c0.57013,0,1.03226-0.46213,1.03226-1.03226V3.53226   c0-0.57006-0.46213-1.03226-1.03226-1.03226H22.59599c-0.57006,0-1.03226,0.4622-1.03226,1.03226v6.21377   C21.56374,10.31615,22.02593,10.77829,22.59599,10.77829z"/><path d="M61.96211,49.406L56.40856,6.96982c-0.14453-1.02193-1.03226-1.78579-2.06452-1.78579h-4.83096v3.12777h1.53806   c0.51613,0,0.94966,0.38193,1.02193,0.89806l5.31615,40.61933c0.16513,1.21806-0.17553,2.39484-0.98066,3.31357   c-0.81553,0.91866-1.93032,1.43479-3.14838,1.43479h-0.27873V57.695h1.77546C59.175,57.695,62.58144,53.78276,61.96211,49.406z"/><path d="M16.01629,54.57756h-0.27873c-1.21806,0-2.33291-0.51613-3.13804-1.43479   c-0.80519-0.91873-1.14579-2.09552-0.98066-3.31357l5.31615-40.61933c0.06193-0.51613,0.5058-0.89806,1.03226-0.89806H19.495   V5.18403h-4.84129c-1.03226,0-1.90965,0.76386-2.05418,1.78579L7.03564,49.406c-0.609,4.37676,2.79744,8.289,7.21547,8.289h1.76518   V54.57756z"/></g></svg>