<svg xmlns="http://www.w3.org/2000/svg" xmlns:xlink="http://www.w3.org/1999/xlink" version="1.1" x="0px" y="0px" viewBox="0 0 100 125" enable-background="new 0 0 100 100" xml:space="preserve" style="fill: #fff;"><rect fill="none" width="100" height="100"/><g><path d="M77.471,65.008c1.592,0,2.883-1.29,2.883-2.884c0-1.593-1.291-2.883-2.883-2.883h-2.428   c1.154,1.63,1.834,3.621,1.834,5.767H77.471z"/><path d="M22.53,59.241c-1.592,0-2.883,1.29-2.883,2.883c0,1.594,1.291,2.884,2.883,2.884h0.594c0-2.146,0.678-4.137,1.832-5.767   H22.53z"/><path d="M51.695,26.005h-3.392H11.677v5.088h3.052l12.296,25.99c1.69-1.305,3.807-2.081,6.101-2.081   c5.517,0,10.005,4.488,10.005,10.006h13.735c0-5.518,4.488-10.006,10.004-10.006c2.297,0,4.412,0.776,6.104,2.081l12.295-25.99   h3.053v-5.088H51.695z"/><g><path d="M33.127,56.02c-2.14,0-4.109,0.753-5.654,2.008c-0.449,0.364-0.863,0.771-1.233,1.214    c-1.31,1.563-2.099,3.573-2.099,5.767c0,4.954,4.031,8.987,8.986,8.987c4.957,0,8.988-4.033,8.988-8.987    C42.115,60.051,38.083,56.02,33.127,56.02z"/><path d="M73.762,59.241c-0.373-0.443-0.785-0.85-1.234-1.214c-1.545-1.255-3.514-2.008-5.656-2.008    c-4.955,0-8.986,4.031-8.986,8.988c0,4.954,4.031,8.987,8.986,8.987c4.957,0,8.988-4.033,8.988-8.987    C75.859,62.814,75.07,60.804,73.762,59.241z"/></g></g></svg>