<svg xmlns="http://www.w3.org/2000/svg" xmlns:xlink="http://www.w3.org/1999/xlink" version="1.1" x="0px" y="0px" viewBox="0 0 100 125" style="enable-background:new 0 0 100 100; fill: #fff;" xml:space="preserve"><style type="text/css">.st0{fill:none;}</style><g><rect class="st0" width="100" height="100"/></g><path d="M58.8,21.3l-2.6-5.5h-3.9H51h-2h-1.3h-3.9l-2.6,5.5c0,0-20,0.9-31.4,16.1c0,0,16.8-9.4,35.3-9.4l0.9,3h0.5v50.1  c0,1.7,1.4,3.1,3.1,3.1h0.7c1.7,0,3.1-1.4,3.1-3.1V31H54l0.9-3c18.5,0,35.3,9.4,35.3,9.4C78.7,22.3,58.8,21.3,58.8,21.3z"/></svg>