<svg xmlns="http://www.w3.org/2000/svg" viewBox="0 0 68 75" x="0px" y="0px"><path fill="#ffffff" d="M214,720 L178,720 C176.895431,720 176,719.104569 176,718 L176,662 C176,660.895431 176.895431,660 178,660 L214,660 C215.104569,660 216,660.895431 216,662 L216,676 C217.104569,676 218,676.895431 218,678 L218,702 C218,703.104569 217.104569,704 216,704 L216,718 C216,719.104569 215.104569,720 214,720 Z M212,676 L212,664 L204,664 L204,676 L212,676 Z M212,704 L204,704 L204,716 L212,716 L212,704 Z M200,704 C198.895431,704 198,703.104569 198,702 L198,678 C198,676.895431 198.895431,676 200,676 L200,664 L192,664 L192,716 L200,716 L200,704 Z M188,664 L180,664 L180,716 L188,716 L188,664 Z M214,680 L202,680 L202,700 L214,700 L214,680 Z M231.551542,690.404997 C229.993401,689.121126 229,687.176574 229,685 C229,681.134007 232.134007,678 236,678 C239.865993,678 243,681.134007 243,685 C243,687.179284 242.004124,689.125968 240.442636,690.409789 L243.787937,697.083283 C244.240695,697.986484 243.948739,699.085517 243.107434,699.644953 L240.068979,701.66541 C239.149198,702.277029 237.907754,702.027214 237.296135,701.107434 C236.684516,700.187654 236.93433,698.946209 237.85411,698.33459 L239.4191,697.293932 L236.745674,691.960752 C236.500666,691.986696 236.251887,692 236,692 C235.745942,692 235.495045,691.986465 235.247991,691.960078 L231.722767,698.905227 C231.182979,699.96868 229.838367,700.326393 228.841503,699.671743 L225.90215,697.74144 C224.978872,697.135115 224.721931,695.895125 225.328257,694.971847 C225.934583,694.048569 227.174572,693.791628 228.09785,694.397954 L229.168058,695.10077 L231.551542,690.404997 Z M236,688 C237.656854,688 239,686.656854 239,685 C239,683.343146 237.656854,682 236,682 C234.343146,682 233,683.343146 233,685 C233,686.656854 234.343146,688 236,688 Z M210,690.464871 L210,694 C210,696.666667 206,696.666667 206,694 L206,690.464871 C204.804397,689.773252 204,688.480565 204,687 C204,684.790861 205.790861,683 208,683 C210.209139,683 212,684.790861 212,687 C212,688.480565 211.195603,689.773252 210,690.464871 Z" transform="translate(-176 -660)"/></svg>