<svg xmlns="http://www.w3.org/2000/svg" xmlns:xlink="http://www.w3.org/1999/xlink" version="1.1" x="0px" y="0px" viewBox="0 0 100 125" enable-background="new 0 0 100 100" xml:space="preserve" fill="#ffffff"><path d="M95,34.024L56.147,49.039l-8.374-9.278l-1.249-1.472c-1.436-1.227-3.574,2.426-5.48,3.915l-2.348-2.683  c0,0-2.644-0.255-3.446,0.277c-1.596,1.069-2.027,3.23-0.961,4.827l-1.157-1.1c-1.069-1.603-3.03-2.375-4.631-1.311  c-1.601,1.067-2.021,3.373-0.956,4.968l0.667,1.25c-1.065-1.598-3.402-2.246-4.828-0.961c-0.96,0.868-1.726,2.097-0.578,4.752  l1.197,2.056l0.623,0.942l5.611,7.191c-0.446,0.022-1.426,1.642-6.501,3.014c-0.726,0.197-1.395,0.334-1.395,0.334  s-3.067-0.986-5.223-1.338c-1.504-0.245-4.38-0.258-4.636,2.604c-0.189,2.114,2.281,2.855,3.406,3.452  c2.501,1.33,4.533,2.321,6.836,2.067l19.311-0.416c0,0,0.268,0.294,8.448-0.916c3.896-0.574,15.567-2.729,15.567-2.729l28.946-7.684  L95,34.024z"/><circle cx="8.001" cy="47.831" r="3.001"/><path d="M23.103,52.725c0,0-4.543-3.665-6.106-3.872c-1.994-0.263-7.843,1.779-7.843,1.779l-1.782-5.721  c0,0,7.479-2.821,9.834-2.397c2.354,0.424,10.128,5.012,10.128,5.012L23.103,52.725z"/><circle cx="11.885" cy="38.46" r="3.002"/><path d="M27.545,47.183c0,0-3.088-4.954-4.497-5.661c-1.798-0.904-10.599-0.113-10.599-0.113l-1.127-5.897  c0,0,11.92-1.081,14.006,0.09c2.084,1.174,8.962,9.024,8.962,9.024L27.545,47.183z"/><circle cx="21.502" cy="32.149" r="3.002"/><path d="M34.29,44.625c0,0-4.551-7.973-5.96-8.679c-1.798-0.903-6.702-0.876-6.702-0.876l-0.689-5.87c0,0,7.585-0.346,9.671,0.825  c2.083,1.174,10.21,11.92,10.21,11.92L34.29,44.625z"/><g><circle cx="30.41" cy="31.214" r="2.623"/><path d="M41.045,42.204c0,0-3.716-7.852-5.024-8.73c-1.67-1.124-4.749,0.214-4.749,0.214l-1.521-4.964c0,0,7.355-2.262,9.275-0.838   c1.92,1.428,8.501,11.584,8.501,11.584L41.045,42.204z"/></g></svg>